<svg width="14" height="15" viewBox="0 0 14 15" fill="none" xmlns="http://www.w3.org/2000/svg">
<path d="M5.23185 7.16406C5.23185 7.09175 5.26057 7.02241 5.3117 6.97128L6.45612 5.82686C6.50725 5.77573 6.57659 5.74701 6.6489 5.74701H7.35103C7.42334 5.74701 7.49269 5.77573 7.54381 5.82686L8.70333 6.98638C8.75446 7.03751 8.78319 7.10685 8.78319 7.17916V7.82081C8.78319 7.89312 8.75446 7.96247 8.70333 8.01359L7.49846 9.21847C7.44733 9.2696 7.37798 9.29833 7.30567 9.29833H6.69426C6.62195 9.29833 6.55261 9.2696 6.50148 9.21847L5.3117 8.02869C5.26057 7.97757 5.23185 7.90822 5.23185 7.83591V7.16406Z" fill="#FF6B00"/>
<path d="M12.1087 0.559906C12.1885 0.480053 12.318 0.480053 12.3979 0.559906L13.9401 2.10215C14.02 2.182 14.02 2.31147 13.9401 2.39132L10.283 6.04847C10.2441 6.08733 10.1912 6.10891 10.1363 6.10834L9.44303 6.1012C9.38953 6.10064 9.33838 6.07915 9.30055 6.04132L8.4607 5.20147C8.42287 5.16364 8.40138 5.11249 8.40083 5.059L8.39364 4.36178C8.39307 4.30682 8.41465 4.25395 8.45352 4.21509L12.1087 0.559906Z" fill="#FF6B00"/>
<path d="M0.059905 2.3913C-0.0199473 2.31145 -0.0199473 2.18199 0.059905 2.10213L1.60215 0.559889C1.682 0.480037 1.81147 0.480037 1.89132 0.559889L5.54846 4.21703C5.58733 4.2559 5.60891 4.30877 5.60834 4.36373L5.6012 5.05697C5.60064 5.11047 5.57915 5.16162 5.54132 5.19945L4.70147 6.03929C4.66364 6.07713 4.61249 6.09862 4.559 6.09917L3.86178 6.10636C3.80682 6.10693 3.75395 6.08535 3.71508 6.04648L0.059905 2.3913Z" fill="#FF6B00"/>
<path d="M13.9401 12.6087C14.0199 12.6885 14.0199 12.818 13.9401 12.8978L12.3979 14.4401C12.318 14.5199 12.1885 14.5199 12.1087 14.4401L8.45154 10.7829C8.41267 10.7441 8.39109 10.6912 8.39166 10.6362L8.3988 9.94299C8.39935 9.8895 8.42085 9.83835 8.45868 9.80052L9.29853 8.96067C9.33636 8.92284 9.38751 8.90135 9.441 8.90079L10.1382 8.89361C10.1932 8.89304 10.2461 8.91462 10.2849 8.95348L13.9401 12.6087Z" fill="#FF6B00"/>
<path d="M1.8913 14.4401C1.81145 14.5199 1.68199 14.5199 1.60213 14.4401L0.0598892 12.8979C-0.0199631 12.818 -0.0199631 12.6885 0.0598892 12.6087L3.71703 8.95154C3.7559 8.91267 3.80877 8.89109 3.86373 8.89166L4.55697 8.8988C4.61047 8.89936 4.66162 8.92085 4.69945 8.95868L5.53929 9.79853C5.57713 9.83636 5.59862 9.88751 5.59917 9.941L5.60636 10.6382C5.60693 10.6932 5.58535 10.7461 5.54648 10.7849L1.8913 14.4401Z" fill="#FF6B00"/>
</svg>
